# xmcd
#
# Track frame offsets:
# 150
# 16267
# 32330
# 50877
# 64460
# 78075
# 92842
# 106387
# 119835
# 135935
# 153270
# 168340
# 181402
# 198045
# 212217
#
# Disc length: 3115 seconds
#
#
# Revision: 0
# Processed by: cddbd v1.5.2PL0 Copyright (c) Steve Scherf et al.
# Submitted via: FreeRIP 2.951 
#
DISCID=c60c290f
DTITLE=VARIOS/BARRETAO 2007 - BARRETAO 2007
DYEAR=2007
DGENRE=SERTANEJO
TTITLE0=AO SOM DO RHAAS/GRUPO RHAAS
TTITLE1=DE SEGUNDA A SEGUNDA/LUAN E LEOMAR
TTITLE2=PERERECA/FABRICIO E FABIAN
TTITLE3=BEIJO TA NA MODA/LELLES E LEONARDO
TTITLE4=FAISCA NA FIVELA/JUNIOR E OSMAR
TTITLE5=ALO GOIAS/JEAN E JULIANO
TTITLE6=AGORA E SO ALEGRIA/RODRIGO OLIVEIRA E RICARDO
TTITLE7=TO DE BOA/FRANN E DELLUC
TTITLE8=TOMO CERVEJA GELADA/FYLE
TTITLE9=TERRA DE PEAO/MARCUS E LOZAN
TTITLE10=BEM AMADO/JANDER E JARDEL
TTITLE11=MULHER BONITA TEM QUE SER METIDA/WESLEN E ANDRE
TTITLE12=NOIS E CAIPIRA/JEAN E JULIANO
TTITLE13=VENTO/GUILHERME E GUSTAVO
TTITLE14=AQUELE AMOR/CLEYTON E JESIEL
EXTD=
EXTT0=
EXTT1=
EXTT2=
EXTT3=
EXTT4=
EXTT5=
EXTT6=
EXTT7=
EXTT8=
EXTT9=
EXTT10=
EXTT11=
EXTT12=
EXTT13=
EXTT14=
PLAYORDER=
